<?xml version="1.0" encoding="utf-8"?>
<!-- Generator: Adobe Illustrator 14.0.0, SVG Export Plug-In  -->
<!DOCTYPE svg PUBLIC "-//W3C//DTD SVG 1.1//EN" "http://www.w3.org/Graphics/SVG/1.1/DTD/svg11.dtd" [
	<!ENTITY ns_flows "http://ns.adobe.com/Flows/1.0/">
]>
<svg version="1.1"
	 xmlns="http://www.w3.org/2000/svg" xmlns:xlink="http://www.w3.org/1999/xlink" xmlns:a="http://ns.adobe.com/AdobeSVGViewerExtensions/3.0/"
	 x="0px" y="0px" width="64px" height="64px" viewBox="-4.669 -4.572 64 64" enable-background="new -4.669 -4.572 64 64"
	 xml:space="preserve">
<defs>
</defs>
<filter  id="filter3734" inkscape:collect="always">
	<feGaussianBlur  id="feGaussianBlur3736" inkscape:collect="always" stdDeviation="0.27150881"></feGaussianBlur>
</filter>
<g id="path3689_1_" inkscape:randomized="0" inkscape:rounded="0" inkscape:flatsided="false" sodipodi:arg2="0.84262483" sodipodi:arg1="0.76456784" sodipodi:r2="17.651348" sodipodi:r1="18.570114" sodipodi:cy="19.282051" sodipodi:cx="21.333332" sodipodi:sides="42" sodipodi:type="star" opacity="0.8159" filter="url(#filter3734)" enable-background="new    ">
	<polygon points="44.443,43.107 42.178,43.546 41.616,45.645 39.311,45.74 38.442,47.732 36.149,47.484 34.993,49.324 
		32.762,48.736 31.344,50.383 29.226,49.47 27.579,50.887 25.621,49.668 23.781,50.824 22.026,49.327 20.034,50.195 18.522,48.453 
		16.423,49.016 15.188,47.068 13.028,47.312 12.097,45.201 9.925,45.119 9.319,42.895 7.184,42.49 6.916,40.199 4.865,39.481 
		4.941,37.176 3.02,36.16 3.439,33.893 1.691,32.602 2.444,30.422 0.907,28.885 1.977,26.841 0.686,25.092 2.048,23.23 
		1.033,21.309 2.657,19.671 1.939,17.62 3.79,16.243 3.386,14.107 5.42,13.021 5.339,10.849 7.513,10.079 7.757,7.919 10.021,7.48 
		10.584,5.381 12.889,5.286 13.758,3.294 16.051,3.542 17.207,1.703 19.438,2.29 20.855,0.643 22.973,1.557 24.621,0.139 
		26.579,1.358 28.418,0.202 30.173,1.7 32.166,0.831 33.677,2.573 35.776,2.01 37.012,3.958 39.171,3.715 40.102,5.825 
		42.274,5.907 42.88,8.132 45.016,8.536 45.284,10.827 47.334,11.545 47.258,13.851 49.18,14.866 48.76,17.134 50.508,18.425 
		49.756,20.605 51.292,22.142 50.223,24.186 51.514,25.935 50.151,27.796 51.167,29.717 49.542,31.355 50.26,33.406 48.411,34.783 
		48.814,36.92 46.78,38.006 46.86,40.178 44.686,40.948 	"/>
</g>
<path id="path3608_1_" inkscape:randomized="0" inkscape:rounded="0" inkscape:flatsided="false" sodipodi:arg2="0.84262483" sodipodi:arg1="0.76456784" sodipodi:r2="17.651348" sodipodi:r1="18.570114" sodipodi:cy="19.282051" sodipodi:cx="21.333332" sodipodi:sides="42" sodipodi:type="star" fill="#165016" d="
	M43.76,42.973l-2.265,0.438l-0.563,2.1l-2.305,0.096l-0.869,1.992l-2.294-0.248l-1.156,1.84l-2.23-0.588l-1.418,1.646l-2.117-0.913
	l-1.648,1.418l-1.958-1.22l-1.84,1.156l-1.755-1.497l-1.992,0.869l-1.512-1.743l-2.099,0.563l-1.236-1.947l-2.16,0.243l-0.931-2.11
	L9.24,44.984l-0.606-2.226l-2.135-0.403l-0.268-2.292l-2.052-0.718l0.077-2.306l-1.921-1.016l0.419-2.269l-1.749-1.291l0.753-2.18
	l-1.537-1.537l1.07-2.044L0,24.955l1.362-1.861l-1.016-1.922l1.625-1.638l-0.718-2.052l1.851-1.377L2.7,13.969l2.035-1.086
	l-0.081-2.172L6.828,9.94l0.243-2.16l2.265-0.438l0.563-2.099l2.305-0.096l0.869-1.992l2.293,0.249l1.156-1.84l2.231,0.588
	l1.417-1.647l2.118,0.914L23.937,0l1.958,1.22l1.84-1.157l1.755,1.498l1.992-0.869l1.512,1.743l2.1-0.563l1.234,1.948l2.16-0.244
	l0.932,2.111l2.172,0.081l0.605,2.226l2.136,0.404l0.269,2.292l2.051,0.718l-0.076,2.306l1.921,1.016l-0.419,2.268l1.748,1.291
	l-0.753,2.181l1.537,1.537l-1.069,2.044l1.291,1.749l-1.363,1.861l1.016,1.922l-1.624,1.638l0.718,2.052l-1.851,1.378l0.404,2.135
	l-2.035,1.086l0.081,2.172l-2.174,0.771L43.76,42.973z"/>
<linearGradient id="path3658_2_" gradientUnits="userSpaceOnUse" x1="166.5767" y1="-68.0547" x2="189.6228" y2="-76.0125" gradientTransform="matrix(1.3098 0 0 -1.3098 -217.7142 -72.3758)">
	<stop  offset="0" style="stop-color:#69B628"/>
	<stop  offset="1" style="stop-color:#69B628;stop-opacity:0"/>
</linearGradient>
<path id="path3658_1_" inkscape:randomized="0" inkscape:rounded="0" inkscape:flatsided="false" sodipodi:arg2="0.84262483" sodipodi:arg1="0.76456784" sodipodi:r2="17.651348" sodipodi:r1="18.570114" sodipodi:cy="19.282051" sodipodi:cx="21.333332" sodipodi:sides="42" sodipodi:type="star" opacity="0.6621" fill="url(#path3658_2_)" enable-background="new    " d="
	M42.969,42.214l-2.166,0.419l-0.539,2.01l-2.205,0.091l-0.832,1.906l-2.194-0.237l-1.106,1.76L31.792,47.6l-1.356,1.576
	l-2.026-0.873l-1.577,1.355l-1.874-1.166l-1.761,1.106l-1.679-1.433l-1.906,0.831l-1.447-1.667l-2.009,0.538l-1.182-1.864
	l-2.067,0.232l-0.891-2.02l-2.079-0.078l-0.58-2.129l-2.043-0.387L7.058,39.43l-1.963-0.686l0.074-2.207L3.33,35.565l0.401-2.171
	L2.058,32.16l0.721-2.087l-1.471-1.471l1.023-1.956l-1.235-1.673l1.304-1.782l-0.972-1.839l1.554-1.567l-0.687-1.963l1.771-1.318
	l-0.387-2.043l1.947-1.04l-0.078-2.079l2.081-0.737l0.233-2.067l2.167-0.419l0.539-2.009l2.206-0.091l0.832-1.906l2.194,0.238
	l1.107-1.761l2.134,0.563l1.356-1.576l2.027,0.874L24,1.094l1.874,1.167l1.761-1.106l1.68,1.433l1.906-0.832l1.446,1.667
	l2.009-0.538l1.182,1.864l2.067-0.233l0.892,2.02l2.078,0.078l0.58,2.13l2.043,0.387l0.256,2.193l1.963,0.687l-0.073,2.207
	l1.839,0.972l-0.401,2.17l1.673,1.235l-0.72,2.086l1.47,1.471L48.5,24.106l1.236,1.673l-1.305,1.782l0.973,1.839l-1.555,1.566
	l0.688,1.963l-1.771,1.318l0.387,2.043l-1.947,1.04l0.078,2.079l-2.081,0.736L42.969,42.214z"/>
<g enable-background="new    ">
	<path fill="#FFFFFF" d="M27.375,36.401h-7.102l-1.287-3.559c-0.052-0.104-0.086-0.157-0.103-0.157
		c-0.035,0-0.051,0.105-0.051,0.314v3.401h-6.69V14.326h7.076c2.196,0,3.919,0.708,5.172,2.126c1.252,1.417,1.878,3.291,1.878,5.621
		c0,2.121-0.652,3.905-1.956,5.353L27.375,36.401z M25.96,35.236l-2.779-8.156c1.423-1.343,2.135-3.012,2.135-5.007
		c0-1.973-0.544-3.563-1.634-4.771c-1.089-1.207-2.578-1.811-4.464-1.811h-6.124v19.745h4.786V20.813h0.849
		c1.166,0,1.75,0.462,1.75,1.386c0,1.07-0.506,1.606-1.518,1.606h-0.386v5.07l2.315,6.361H25.96z M18.833,22.64
		c0.257,0,0.437-0.026,0.54-0.079c0.103-0.052,0.154-0.173,0.154-0.362c0-0.147-0.231-0.221-0.694-0.221V22.64z"/>
	<path fill="#FFFFFF" d="M27.35,36.401l3.114-7.18c0.052-0.105,0.077-0.179,0.077-0.221c0-0.063-0.043-0.137-0.129-0.221
		c-1.167-1.007-2.02-2.078-2.561-3.212c-0.54-1.133-0.81-2.393-0.81-3.779c0-2.204,0.639-4.099,1.917-5.684
		c1.278-1.585,2.826-2.377,4.645-2.377c1.87,0,3.431,0.803,4.684,2.409c1.252,1.606,1.878,3.49,1.878,5.652
		c0,1.26-0.231,2.457-0.694,3.59l-1.184,2.866h2.059v8.156H27.35z M39.392,35.236V29.41h-2.676l1.903-4.566
		c0.395-0.965,0.592-1.984,0.592-3.055c0-1.847-0.536-3.458-1.607-4.834c-1.072-1.375-2.406-2.063-4.002-2.063
		c-1.561,0-2.886,0.677-3.976,2.031c-1.089,1.354-1.634,2.976-1.634,4.865c0,2.478,0.901,4.44,2.702,5.889l2.033-4.503
		c-0.258-0.335-0.387-0.703-0.387-1.102c0-0.378,0.099-0.693,0.296-0.945s0.459-0.378,0.785-0.378c0.737,0,1.106,0.368,1.106,1.102
		c0,0.399-0.12,0.872-0.36,1.417l-5.197,11.967H39.392z M33.474,22.325c0.034,0,0.064-0.037,0.09-0.11
		c0.025-0.073,0.038-0.131,0.038-0.173c0-0.083-0.06-0.126-0.18-0.126c-0.068,0-0.103,0.042-0.103,0.126
		c0,0.042,0.017,0.1,0.051,0.173C33.405,22.289,33.439,22.325,33.474,22.325z"/>
</g>
</svg>
